<?xml version="1.0" encoding="utf-8"?>
<svg version="1.1" xmlns:xlink="http://www.w3.org/1999/xlink" width="8px" height="14px" xmlns="http://www.w3.org/2000/svg">
  <g>
    <path d="M 7.86254295532646 6.677354709418838  C 7.954180985108821 6.770875083500334  8 6.878423513694054  8 7  C 8 7.121576486305944  7.954180985108821 7.229124916499665  7.86254295532646 7.322645290581162  L 1.4570446735395188 13.859719438877756  C 1.3654066437571593 13.953239812959252  1.2600229095074456 14  1.140893470790378 14  C 1.0217640320733106 14  0.9163802978235969 13.953239812959252  0.8247422680412371 13.859719438877756  L 0.13745704467353953 13.158316633266534  C 0.04581901489117987 13.064796259185037  0 12.957247828991317  0 12.83567134268537  C 0 12.714094856379425  0.04581901489117987 12.606546426185703  0.13745704467353953 12.513026052104209  L 5.5395189003436425 7  L 0.13745704467353953 1.4869739478957915  C 0.04581901489117987 1.3934535738142946  0 1.285905143620574  0 1.1643286573146296  C 0 1.0427521710086822  0.04581901489117987 0.9352037408149616  0.13745704467353953 0.8416833667334662  L 0.8247422680412371 0.14028056112224463  C 0.9163802978235969 0.04676018704074769  1.0217640320733106 0  1.140893470790378 0  C 1.2600229095074456 0  1.3654066437571593 0.04676018704074769  1.4570446735395188 0.14028056112224463  L 7.86254295532646 6.677354709418838  Z " fill-rule="nonzero" fill="#333333" stroke="none" />
  </g>
</svg>